<!-- <?xml version="1.0" standalone="no"?>
<!DOCTYPE svg PUBLIC "-//W3C//DTD SVG 20010904//EN"
 "http://www.w3.org/TR/2001/REC-SVG-20010904/DTD/svg10.dtd">
<svg version="1.0" xmlns="http://www.w3.org/2000/svg"
 width="1024.000000pt" height="768.000000pt" viewBox="0 0 1024.000000 768.000000"
 preserveAspectRatio="xMidYMid meet">

<g transform="translate(0.000000,768.000000) scale(0.100000,-0.100000)"
fill="#000000" stroke="none">
<path d="M3559 4240 c-183 -52 -303 -180 -364 -385 -23 -75 -27 -111 -29 -215
-1 -129 18 -246 35 -219 5 8 9 10 9 5 0 -5 7 -3 15 4 8 6 18 9 24 6 5 -4 16 0
24 8 11 11 17 12 27 3 7 -7 11 -7 8 -2 -3 6 3 18 13 27 14 13 20 14 28 4 6 -7
7 -17 3 -21 -4 -5 -2 -5 5 -2 8 5 5 19 -10 50 -30 58 -36 221 -12 303 40 139
110 236 203 281 49 24 69 28 142 28 96 0 161 -23 216 -76 l31 -30 20 108 c12
59 20 109 19 110 -1 1 -35 9 -75 18 -99 21 -249 18 -332 -5z"/>
<path d="M4475 3964 c-87 -32 -134 -108 -135 -217 0 -150 79 -216 244 -204
135 11 126 2 126 128 l0 109 -85 0 -85 0 0 -35 c0 -34 1 -35 40 -35 l40 0 0
-45 0 -45 -56 0 c-50 0 -59 3 -90 34 -30 30 -34 40 -34 85 0 68 21 116 62 141
27 18 44 20 93 16 33 -3 68 -8 78 -11 15 -6 17 -1 17 38 0 44 -1 44 -37 51
-61 10 -135 6 -178 -10z"/>
<path d="M5420 3761 c0 -204 1 -211 20 -211 18 0 20 7 20 84 0 47 4 87 9 90
17 11 75 -40 121 -104 34 -48 53 -66 73 -68 15 -2 27 -1 27 2 0 15 -121 174
-137 181 -15 5 -12 9 15 20 46 20 78 91 62 140 -16 48 -50 66 -136 72 l-74 6
0 -212z m144 140 c45 -50 1 -136 -68 -129 -31 3 -31 4 -33 63 -1 33 0 66 2 73
7 20 79 15 99 -7z"/>
<path d="M4845 3846 c-88 -39 -119 -151 -70 -247 26 -49 130 -74 204 -48 27 9
31 16 31 45 0 32 -12 45 -24 25 -3 -4 -22 -11 -42 -14 -54 -9 -104 22 -104 64
0 5 43 9 95 9 l95 0 0 35 c0 49 -23 100 -54 120 -35 23 -95 28 -131 11z m95
-77 c18 -33 11 -39 -45 -39 -57 0 -67 9 -42 41 24 32 70 31 87 -2z"/>
<path d="M5220 3849 c-13 -6 -33 -17 -42 -26 -17 -15 -18 -15 -18 5 0 19 -6
22 -40 22 l-40 0 0 -150 0 -150 45 0 45 0 0 103 c0 88 3 106 18 120 23 21 46
22 66 1 13 -12 16 -38 16 -120 l0 -104 45 0 45 0 0 115 c0 133 -11 167 -61
184 -38 13 -46 13 -79 0z"/>
<path d="M6083 3849 c-39 -11 -63 -43 -63 -85 0 -37 13 -50 84 -84 44 -22 51
-29 51 -54 0 -25 -5 -31 -32 -38 -23 -6 -43 -4 -68 6 -35 15 -35 15 -35 -10 0
-32 40 -48 99 -39 53 8 91 43 91 82 0 41 -21 65 -79 93 -34 15 -53 31 -57 46
-10 38 4 47 62 42 45 -4 53 -2 57 14 3 10 2 20 -1 22 -19 10 -81 13 -109 5z"/>
<path d="M6891 3849 c-19 -4 -42 -18 -52 -30 l-18 -24 -21 28 c-29 37 -95 38
-133 3 l-26 -24 -3 22 c-2 13 -10 21 -23 21 -19 0 -20 -8 -23 -147 l-3 -148
26 0 25 0 0 108 c0 100 2 110 23 130 27 25 65 28 93 8 16 -13 19 -29 22 -130
3 -106 5 -116 23 -116 17 0 19 8 19 83 0 138 20 177 89 177 43 0 51 -22 51
-149 l0 -111 25 0 25 0 0 123 c0 134 -8 158 -57 174 -16 5 -43 6 -62 2z"/>
<path d="M7163 3845 c-129 -54 -117 -277 16 -300 46 -8 120 10 128 31 9 24 -4
28 -52 14 -56 -16 -99 -1 -120 41 -29 56 -25 59 85 59 l100 0 0 43 c0 24 -8
56 -20 74 -18 30 -28 35 -91 47 -9 2 -30 -2 -46 -9z m103 -75 l12 -35 -75 -3
c-42 -2 -77 -1 -80 2 -7 7 25 64 39 70 7 2 31 4 53 3 36 -2 41 -5 51 -37z"/>
<path d="M3837 3826 c-234 -24 -211 -13 -272 -119 l-28 -49 139 4 139 3 2 -45
c2 -42 0 -47 -41 -80 -24 -19 -41 -38 -39 -42 2 -5 -6 -8 -18 -8 -22 0 -22 0
-3 -15 11 -8 14 -15 7 -15 -7 0 -13 -5 -13 -11 0 -5 6 -7 13 -3 9 6 9 5 1 -7
-14 -17 -10 -72 6 -77 7 -3 7 -9 -2 -20 -7 -9 15 4 50 27 35 24 65 41 66 39 2
-1 10 -43 20 -93 17 -89 31 -122 40 -94 8 25 25 149 41 308 18 167 17 164 75
248 39 55 48 74 33 72 -5 -1 -102 -11 -216 -23z"/>
<path d="M5765 3819 c-84 -74 -66 -225 31 -265 40 -17 66 -17 117 -3 30 8 37
15 37 35 0 22 -2 23 -20 14 -30 -16 -95 -16 -124 -1 -22 12 -46 55 -46 82 0 5
47 9 105 9 l105 0 0 35 c0 77 -47 125 -122 125 -39 0 -54 -6 -83 -31z m139
-31 c9 -12 16 -30 16 -40 0 -16 -10 -18 -75 -18 -68 0 -75 2 -75 20 0 56 102
84 134 38z"/>
<path d="M6270 3733 c0 -132 15 -175 65 -187 37 -9 90 10 115 41 l20 26 0 -32
c0 -24 4 -31 20 -31 19 0 20 7 20 151 0 150 0 150 -22 147 -22 -3 -23 -8 -28
-111 -5 -105 -6 -110 -34 -134 -31 -27 -71 -25 -93 3 -11 16 -27 138 -23 184
4 48 0 60 -20 60 -19 0 -20 -7 -20 -117z"/>
</g>
</svg> -->
<?xml version="1.0" standalone="no"?>
<!DOCTYPE svg PUBLIC "-//W3C//DTD SVG 20010904//EN"
 "http://www.w3.org/TR/2001/REC-SVG-20010904/DTD/svg10.dtd">
<svg version="1.0" xmlns="http://www.w3.org/2000/svg"
 width="1024.000000pt" height="768.000000pt" viewBox="0 0 1024.000000 768.000000"
 preserveAspectRatio="xMidYMid meet">

<g transform="translate(0.000000,1500.000000) scale(0.15,-0.15)"
fill="#000000" stroke="none">
<path d="M3559 4240 c-183 -52 -303 -180 -364 -385 -23 -75 -27 -111 -29 -215
-1 -129 18 -246 35 -219 5 8 9 10 9 5 0 -5 7 -3 15 4 8 6 18 9 24 6 5 -4 16 0
24 8 11 11 17 12 27 3 7 -7 11 -7 8 -2 -3 6 3 18 13 27 14 13 20 14 28 4 6 -7
7 -17 3 -21 -4 -5 -2 -5 5 -2 8 5 5 19 -10 50 -30 58 -36 221 -12 303 40 139
110 236 203 281 49 24 69 28 142 28 96 0 161 -23 216 -76 l31 -30 20 108 c12
59 20 109 19 110 -1 1 -35 9 -75 18 -99 21 -249 18 -332 -5z"/>
<path d="M4475 3964 c-87 -32 -134 -108 -135 -217 0 -150 79 -216 244 -204
135 11 126 2 126 128 l0 109 -85 0 -85 0 0 -35 c0 -34 1 -35 40 -35 l40 0 0
-45 0 -45 -56 0 c-50 0 -59 3 -90 34 -30 30 -34 40 -34 85 0 68 21 116 62 141
27 18 44 20 93 16 33 -3 68 -8 78 -11 15 -6 17 -1 17 38 0 44 -1 44 -37 51
-61 10 -135 6 -178 -10z"/>
<path d="M5420 3761 c0 -204 1 -211 20 -211 18 0 20 7 20 84 0 47 4 87 9 90
17 11 75 -40 121 -104 34 -48 53 -66 73 -68 15 -2 27 -1 27 2 0 15 -121 174
-137 181 -15 5 -12 9 15 20 46 20 78 91 62 140 -16 48 -50 66 -136 72 l-74 6
0 -212z m144 140 c45 -50 1 -136 -68 -129 -31 3 -31 4 -33 63 -1 33 0 66 2 73
7 20 79 15 99 -7z"/>
<path d="M4845 3846 c-88 -39 -119 -151 -70 -247 26 -49 130 -74 204 -48 27 9
31 16 31 45 0 32 -12 45 -24 25 -3 -4 -22 -11 -42 -14 -54 -9 -104 22 -104 64
0 5 43 9 95 9 l95 0 0 35 c0 49 -23 100 -54 120 -35 23 -95 28 -131 11z m95
-77 c18 -33 11 -39 -45 -39 -57 0 -67 9 -42 41 24 32 70 31 87 -2z"/>
<path d="M5220 3849 c-13 -6 -33 -17 -42 -26 -17 -15 -18 -15 -18 5 0 19 -6
22 -40 22 l-40 0 0 -150 0 -150 45 0 45 0 0 103 c0 88 3 106 18 120 23 21 46
22 66 1 13 -12 16 -38 16 -120 l0 -104 45 0 45 0 0 115 c0 133 -11 167 -61
184 -38 13 -46 13 -79 0z"/>
<path d="M6083 3849 c-39 -11 -63 -43 -63 -85 0 -37 13 -50 84 -84 44 -22 51
-29 51 -54 0 -25 -5 -31 -32 -38 -23 -6 -43 -4 -68 6 -35 15 -35 15 -35 -10 0
-32 40 -48 99 -39 53 8 91 43 91 82 0 41 -21 65 -79 93 -34 15 -53 31 -57 46
-10 38 4 47 62 42 45 -4 53 -2 57 14 3 10 2 20 -1 22 -19 10 -81 13 -109 5z"/>
<path d="M6891 3849 c-19 -4 -42 -18 -52 -30 l-18 -24 -21 28 c-29 37 -95 38
-133 3 l-26 -24 -3 22 c-2 13 -10 21 -23 21 -19 0 -20 -8 -23 -147 l-3 -148
26 0 25 0 0 108 c0 100 2 110 23 130 27 25 65 28 93 8 16 -13 19 -29 22 -130
3 -106 5 -116 23 -116 17 0 19 8 19 83 0 138 20 177 89 177 43 0 51 -22 51
-149 l0 -111 25 0 25 0 0 123 c0 134 -8 158 -57 174 -16 5 -43 6 -62 2z"/>
<path d="M7163 3845 c-129 -54 -117 -277 16 -300 46 -8 120 10 128 31 9 24 -4
28 -52 14 -56 -16 -99 -1 -120 41 -29 56 -25 59 85 59 l100 0 0 43 c0 24 -8
56 -20 74 -18 30 -28 35 -91 47 -9 2 -30 -2 -46 -9z m103 -75 l12 -35 -75 -3
c-42 -2 -77 -1 -80 2 -7 7 25 64 39 70 7 2 31 4 53 3 36 -2 41 -5 51 -37z"/>
<path d="M3837 3826 c-234 -24 -211 -13 -272 -119 l-28 -49 139 4 139 3 2 -45
c2 -42 0 -47 -41 -80 -24 -19 -41 -38 -39 -42 2 -5 -6 -8 -18 -8 -22 0 -22 0
-3 -15 11 -8 14 -15 7 -15 -7 0 -13 -5 -13 -11 0 -5 6 -7 13 -3 9 6 9 5 1 -7
-14 -17 -10 -72 6 -77 7 -3 7 -9 -2 -20 -7 -9 15 4 50 27 35 24 65 41 66 39 2
-1 10 -43 20 -93 17 -89 31 -122 40 -94 8 25 25 149 41 308 18 167 17 164 75
248 39 55 48 74 33 72 -5 -1 -102 -11 -216 -23z"/>
<path d="M5765 3819 c-84 -74 -66 -225 31 -265 40 -17 66 -17 117 -3 30 8 37
15 37 35 0 22 -2 23 -20 14 -30 -16 -95 -16 -124 -1 -22 12 -46 55 -46 82 0 5
47 9 105 9 l105 0 0 35 c0 77 -47 125 -122 125 -39 0 -54 -6 -83 -31z m139
-31 c9 -12 16 -30 16 -40 0 -16 -10 -18 -75 -18 -68 0 -75 2 -75 20 0 56 102
84 134 38z"/>
<path d="M6270 3733 c0 -132 15 -175 65 -187 37 -9 90 10 115 41 l20 26 0 -32
c0 -24 4 -31 20 -31 19 0 20 7 20 151 0 150 0 150 -22 147 -22 -3 -23 -8 -28
-111 -5 -105 -6 -110 -34 -134 -31 -27 -71 -25 -93 3 -11 16 -27 138 -23 184
4 48 0 60 -20 60 -19 0 -20 -7 -20 -117z"/>
</g>
</svg>
